<svg width="400" height="150" viewBox="0 0 400 150" fill="none" xmlns="http://www.w3.org/2000/svg" role="img"><style>
    .bar-fill { transform-box: fill-box; transform-origin: left center; animation: gg-grow 0.9s ease-out backwards; }
    .vbar { transform-box: fill-box; transform-origin: center bottom; animation: gg-rise 0.9s ease-out backwards; }
    .gg-seg { animation: gg-fade 0.8s ease-out backwards; }
    .gg-ring { animation: gg-fade 1s ease-out backwards; }
    @keyframes gg-grow { from { transform: scaleX(0); } }
    @keyframes gg-rise { from { transform: scaleY(0); } }
    @keyframes gg-fade { from { opacity: 0.15; } }
  </style><rect width="400" height="150" rx="16" fill="#1a1b27"/><rect x="0.5" y="0.5" width="399" height="149" rx="16" fill="none" stroke="#2a2f45" stroke-width="1"/><path transform="translate(30,34)" fill="#7a88cf" d="M2 2.5A2.5 2.5 0 0 1 4.5 0h8.75a.75.75 0 0 1 .75.75v12.5a.75.75 0 0 1-.75.75h-2.5a.75.75 0 0 1 0-1.5h1.75v-2h-8a1 1 0 0 0-.714 1.7.75.75 0 1 1-1.072 1.05A2.495 2.495 0 0 1 2 11.5Zm10.5-1h-8a1 1 0 0 0-1 1v6.708A2.486 2.486 0 0 1 4.5 9h8ZM5 12.25a.25.25 0 0 1 .25-.25h3.5a.25.25 0 0 1 .25.25v3.25a.25.25 0 0 1-.4.2l-1.45-1.087a.249.249 0 0 0-.3 0L5.4 15.7a.25.25 0 0 1-.4-.2Z"/><text x="56" y="48" fill="#70a5fd" font-family="'Segoe UI', Ubuntu, 'Helvetica Neue', Sans-Serif" font-size="17" font-weight="700">gitglance</text><text x="30" y="76" fill="#7a88cf" font-family="'Segoe UI', Ubuntu, 'Helvetica Neue', Sans-Serif" font-size="13.5">Beautiful, self-hostable GitHub stats cards for your</text><text x="30" y="96" fill="#7a88cf" font-family="'Segoe UI', Ubuntu, 'Helvetica Neue', Sans-Serif" font-size="13.5">README. Many themes and styles (vercel, terminal,…</text><circle cx="35" cy="113" r="5" fill="#f1e05a"/>
      <text x="47" y="118" fill="#a9b1d6" font-family="'Segoe UI', Ubuntu, 'Helvetica Neue', Sans-Serif" font-size="13">JavaScript</text><path transform="translate(143,106)" fill="#7a88cf" d="M8 .25a.75.75 0 0 1 .673.418l1.882 3.815 4.21.612a.75.75 0 0 1 .416 1.279l-3.046 2.97.719 4.192a.75.75 0 0 1-1.088.791L8 12.347l-3.766 1.98a.75.75 0 0 1-1.088-.79l.72-4.194L.818 6.374a.75.75 0 0 1 .416-1.28l4.21-.611L7.327.668A.75.75 0 0 1 8 .25Z" fill-rule="evenodd" transform-origin="0 0" style="transform: translate(143px, 106px) scale(0.9);"/><text x="163" y="118" fill="#a9b1d6" font-family="'Segoe UI', Ubuntu, 'Helvetica Neue', Sans-Serif" font-size="13">0</text><path fill="#7a88cf" style="transform: translate(201px, 106px) scale(0.9);" d="M5 5.372v.878c0 .414.336.75.75.75h4.5a.75.75 0 0 0 .75-.75v-.878a2.25 2.25 0 1 1 1.5 0v.878a2.25 2.25 0 0 1-2.25 2.25h-1.5v2.128a2.251 2.251 0 1 1-1.5 0V8.5h-1.5A2.25 2.25 0 0 1 3.5 6.25v-.878a2.25 2.25 0 1 1 1.5 0ZM5 3.25a.75.75 0 1 0-1.5 0 .75.75 0 0 0 1.5 0Zm6.75.75a.75.75 0 1 0 0-1.5.75.75 0 0 0 0 1.5Zm-3 8.75a.75.75 0 1 0-1.5 0 .75.75 0 0 0 1.5 0Z"/><text x="221" y="118" fill="#a9b1d6" font-family="'Segoe UI', Ubuntu, 'Helvetica Neue', Sans-Serif" font-size="13">0</text></svg>